<svg width="21" height="20" viewBox="0 0 21 20" fill="none" xmlns="http://www.w3.org/2000/svg">
<path fill-rule="evenodd" clip-rule="evenodd" d="M5.97042 0.0596729C7.03708 0.0116031 7.37792 0 10.0938 0C12.8096 0 13.1504 0.0116031 14.2171 0.0596729C15.8421 0.133435 17.2696 0.529597 18.4154 1.66918C19.5613 2.80877 19.9596 4.22849 20.0338 5.84463C20.0821 6.90549 20.0938 7.24446 20.0938 9.94549C20.0938 12.6465 20.0821 12.9855 20.0338 14.0463C19.9596 15.6625 19.5613 17.0822 18.4154 18.2218C17.2696 19.3614 15.8421 19.7575 14.2171 19.8313C13.1504 19.8794 12.8096 19.891 10.0938 19.891C7.37792 19.891 7.03708 19.8794 5.97042 19.8313C4.34542 19.7575 2.91792 19.3614 1.77208 18.2218C0.62625 17.0822 0.227917 15.6625 0.15375 14.0463C0.105417 12.9855 0.09375 12.6465 0.09375 9.94549C0.09375 7.24446 0.105417 6.90549 0.15375 5.84463C0.227917 4.22849 0.62625 2.80877 1.77208 1.66918C2.91792 0.529597 4.34542 0.133435 5.97042 0.0596729ZM14.1337 1.85001C13.0795 1.80194 12.7629 1.79199 10.0929 1.79199C7.42286 1.79199 7.1062 1.80194 6.05203 1.85001C4.9137 1.90139 3.85786 2.12848 3.04536 2.93655C2.23286 3.74462 2.00453 4.7947 1.95286 5.92683C1.90453 6.97525 1.89453 7.29019 1.89453 9.94564C1.89453 12.6011 1.90453 12.916 1.95286 13.9644C2.00453 15.0966 2.23286 16.1467 3.04536 16.9547C3.85786 17.7628 4.9137 17.9899 6.05203 18.0413C7.1062 18.0893 7.42286 18.0993 10.0929 18.0993C12.7629 18.0993 13.0795 18.0893 14.1337 18.0413C15.272 17.9899 16.3279 17.7628 17.1404 16.9547C17.9529 16.1467 18.1812 15.0966 18.2329 13.9644C18.2812 12.916 18.2912 12.6011 18.2912 9.94564C18.2912 7.29019 18.2812 6.97525 18.2329 5.92683C18.1812 4.7947 17.9529 3.74462 17.1404 2.93655C16.3279 2.12848 15.272 1.90139 14.1337 1.85001ZM4.95703 9.9449C4.95703 7.12453 7.2562 4.83789 10.092 4.83789C12.9279 4.83789 15.227 7.12453 15.227 9.9449C15.227 12.7653 12.9279 15.0519 10.092 15.0519C7.2562 15.0519 4.95703 12.7653 4.95703 9.9449ZM6.75781 9.94504C6.75781 11.7758 8.25031 13.2602 10.0911 13.2602C11.932 13.2602 13.4245 11.7758 13.4245 9.94504C13.4245 8.11425 11.932 6.62988 10.0911 6.62988C8.25031 6.62988 6.75781 8.11425 6.75781 9.94504ZM16.6305 4.63682C16.6305 5.29595 16.0932 5.83028 15.4305 5.83028C14.7677 5.83028 14.2305 5.29595 14.2305 4.63682C14.2305 3.97769 14.7677 3.44336 15.4305 3.44336C16.0932 3.44336 16.6305 3.97769 16.6305 4.63682Z" fill="#0A142F"/>
</svg>
