<svg width="21" height="16" viewBox="0 0 21 16" fill="none" xmlns="http://www.w3.org/2000/svg">
<path d="M18.1266 4.05368L18.1385 4.56028C18.1385 9.7334 14.1815 15.6933 6.94452 15.6933C4.72331 15.6933 2.65586 15.0457 0.914062 13.9351C1.22171 13.9708 1.53527 13.9907 1.8529 13.9907C3.69662 13.9907 5.39248 13.3649 6.73878 12.316C5.01696 12.2842 3.56474 11.1518 3.06338 9.59832C3.30506 9.644 3.54877 9.6659 3.80444 9.6659C4.164 9.6659 4.51153 9.62022 4.84112 9.53082C3.04137 9.16923 1.68508 7.58991 1.68508 5.69469V5.64503C2.2164 5.93904 2.82164 6.11385 3.46683 6.13574C2.41215 5.43447 1.71702 4.23653 1.71702 2.87966C1.71702 2.16251 1.91079 1.49104 2.24834 0.912947C4.18792 3.28098 7.08829 4.83847 10.3582 5.00139C10.2903 4.71529 10.2563 4.41533 10.2563 4.10942C10.2563 1.94999 12.0181 0.197754 14.1914 0.197754C15.322 0.197754 16.3448 0.672524 17.0638 1.4334C17.9587 1.25656 18.8017 0.930788 19.5627 0.483792C19.269 1.39765 18.6459 2.16447 17.8329 2.64917C18.6259 2.55579 19.3869 2.3432 20.092 2.03331C19.5647 2.81601 18.8956 3.50539 18.1266 4.05368Z" fill="#0A142F"/>
</svg>
